<svg width="31" height="25" viewBox="0 0 31 25" fill="none" xmlns="http://www.w3.org/2000/svg">
<path d="M27.2575 0.000922357C26.5014 0.0271562 25.7849 0.359148 25.2605 0.925969C19.6963 6.7253 15.4466 11.5692 10.2828 17.0507L4.78166 12.217V12.2174C4.19218 11.6989 3.4285 11.4456 2.6592 11.5137C1.89014 11.5818 1.17842 11.9656 0.681726 12.58C0.18474 13.1946 -0.0564049 13.9894 0.0111612 14.7893C0.0787272 15.5891 0.449592 16.328 1.04176 16.8433L8.59418 23.4897V23.4893C9.15003 23.9762 9.86086 24.2289 10.5866 24.1974C11.3128 24.1661 12.001 23.8529 12.5158 23.3195C18.7728 16.7981 23.2269 11.5897 29.3638 5.19355V5.19386C29.9293 4.62545 30.2491 3.84307 30.25 3.02548C30.2512 2.20757 29.9335 1.4246 29.3695 0.85462C28.8056 0.284649 28.0437 -0.0232539 27.2578 0.00137131L27.2575 0.000922357Z" fill="#FFBB38"/>
</svg>
