<svg width="86" height="86" viewBox="0 0 86 86" fill="none" xmlns="http://www.w3.org/2000/svg">
<circle cx="43" cy="43" r="40.5" fill="white" fill-opacity="0.05" stroke="white" stroke-width="5"/>
<path d="M55.123 53.1334L44.8967 56.1419C43.38 56.5717 41.7334 56.5717 40.1735 56.1419L29.9471 53.1334C29.6004 53.0475 29.3404 52.7036 29.3404 52.3168V41.529C29.3404 40.9702 29.9038 40.5835 30.4237 40.7124L40.1734 43.5919C41.6901 44.0217 43.3367 44.0217 44.8966 43.5919L54.6463 40.7124C55.2097 40.5404 55.7296 40.9702 55.7296 41.529V52.3168C55.7295 52.7036 55.4695 53.0044 55.123 53.1334H55.123ZM60.7129 40.9703L59.0229 37.7039C58.8495 37.36 58.4162 37.1882 58.0262 37.2741L44.8966 41.1422C43.3799 41.572 41.7332 41.572 40.1734 41.1422L24.6175 36.5435C23.7942 36.2856 23.7942 35.1682 24.6175 34.9533L40.1737 30.3546C41.7336 29.8818 43.337 29.8818 44.8969 30.3546L62.4031 35.5121C62.8364 35.641 63.0964 36.0709 62.9665 36.5436L61.8399 40.8415C61.7097 41.3572 60.9731 41.4432 60.713 40.9704L60.7129 40.9703Z" fill="white"/>
</svg>
